<svg xmlns="http://www.w3.org/2000/svg" viewBox="0 0 76.51 24.75"><defs><style>.cls-1{fill:#fff;}</style></defs><title>Asset 59</title><g id="Layer_2" data-name="Layer 2"><g id="home_01" data-name="home 01"><rect class="cls-1" x="4.16" y="6.77" width="14.55" height="4.74"/><rect class="cls-1" x="11.6" y="0.24" width="7.11" height="4.72"/><rect class="cls-1" y="13.43" width="18.71" height="4.74"/><rect class="cls-1" x="8.34" y="19.91" width="10.37" height="4.74"/><polygon class="cls-1" points="19.82 0 19.82 4.95 19.82 9.86 19.82 14.81 19.82 19.8 19.82 22.28 19.82 24.75 33.96 24.75 33.96 19.8 25.47 19.8 25.47 14.81 33.96 14.81 33.96 9.86 25.47 9.86 25.47 4.95 33.96 4.95 33.96 0 25.47 0 19.82 0"/><path class="cls-1" d="M42,0H34.9V24.75H42A12.24,12.24,0,0,0,54.55,12.38,12.28,12.28,0,0,0,42,0Zm-.15,19.71H40.55V5h1.28a6.93,6.93,0,0,1,6.64,7.33A7,7,0,0,1,41.83,19.71Z"/><path class="cls-1" d="M66.51,0h-5.2l-10,24.75h6.07l1.91-5h9.25l1.9,5,0,0h6ZM61.18,14.81l2.74-7.17,2.74,7.17Z"/></g></g></svg>